<svg width="200" height="200" viewBox="0 0 200 200" fill="none" xmlns="http://www.w3.org/2000/svg">
  <!-- Price Tag -->
  <path d="M40 60 L80 20 L180 20 L180 120 L140 160 L40 60 Z" fill="#FF6B35" opacity="0.9"/>
  <path d="M40 60 L80 20 L180 20 L180 120 L140 160 L40 60 Z" stroke="#FF6B35" stroke-width="3"/>
  
  <!-- Tag Hole -->
  <circle cx="60" cy="40" r="8" fill="white"/>
  
  <!-- Price Text -->
  <text x="100" y="90" text-anchor="middle" fill="white" font-size="24" font-weight="bold">$AVE</text>
  
  <!-- Discount Badge -->
  <circle cx="160" cy="40" r="25" fill="#FFD700"/>
  <text x="160" y="48" text-anchor="middle" fill="#FF6B35" font-size="16" font-weight="bold">50%</text>
  
  <!-- Shopping Bags -->
  <rect x="30" y="120" width="20" height="25" rx="3" fill="#FF6B35" opacity="0.7"/>
  <rect x="55" y="120" width="20" height="25" rx="3" fill="#FF6B35" opacity="0.7"/>
  <rect x="80" y="120" width="20" height="25" rx="3" fill="#FF6B35" opacity="0.7"/>
  
  <!-- Price Drops -->
  <path d="M120 140 L130 130 L140 140" stroke="#FF6B35" stroke-width="3" fill="none"/>
  <path d="M140 140 L150 130 L160 140" stroke="#FF6B35" stroke-width="3" fill="none"/>
</svg>
