<svg width="200" height="200" viewBox="0 0 200 200" fill="none" xmlns="http://www.w3.org/2000/svg">
  <!-- Shopping Cart -->
  <path d="M40 120 L60 120 L80 120 L100 120 L120 120 L140 120 L160 120 L180 120 L180 140 L160 140 L140 140 L120 140 L100 140 L80 140 L60 140 L40 140 Z" fill="#10B981" opacity="0.9"/>
  <path d="M40 120 L60 120 L80 120 L100 120 L120 120 L140 120 L160 120 L180 120 L180 140 L160 140 L140 140 L120 140 L100 140 L80 140 L60 140 L40 140 Z" stroke="#10B981" stroke-width="2"/>
  
  <!-- Cart Wheels -->
  <circle cx="60" cy="150" r="8" fill="#10B981" opacity="0.7"/>
  <circle cx="140" cy="150" r="8" fill="#10B981" opacity="0.7"/>
  
  <!-- Shopping List -->
  <rect x="30" y="30" width="80" height="100" rx="8" fill="white" stroke="#10B981" stroke-width="2"/>
  
  <!-- List Items -->
  <rect x="40" y="45" width="60" height="8" rx="4" fill="#10B981" opacity="0.7"/>
  <rect x="40" y="60" width="50" height="8" rx="4" fill="#10B981" opacity="0.7"/>
  <rect x="40" y="75" width="55" height="8" rx="4" fill="#10B981" opacity="0.7"/>
  <rect x="40" y="90" width="45" height="8" rx="4" fill="#10B981" opacity="0.7"/>
  <rect x="40" y="105" width="65" height="8" rx="4" fill="#10B981" opacity="0.7"/>
  
  <!-- Checkmarks -->
  <circle cx="35" cy="49" r="3" fill="#10B981"/>
  <circle cx="35" cy="64" r="3" fill="#10B981"/>
  <circle cx="35" cy="79" r="3" fill="#10B981"/>
  <circle cx="35" cy="94" r="3" fill="#10B981"/>
  <circle cx="35" cy="109" r="3" fill="#10B981"/>
  
  <!-- Smart Features -->
  <circle cx="160" cy="50" r="15" fill="#10B981" opacity="0.8"/>
  <path d="M155 50 L158 53 L165 46" stroke="white" stroke-width="2"/>
  
  <!-- Price Tags -->
  <path d="M120 60 L130 50 L140 60 L130 70 Z" fill="#10B981" opacity="0.6"/>
  <text x="130" y="65" text-anchor="middle" fill="white" font-size="8" font-weight="bold">$</text>
  
  <path d="M130 80 L140 70 L150 80 L140 90 Z" fill="#10B981" opacity="0.6"/>
  <text x="140" y="85" text-anchor="middle" fill="white" font-size="8" font-weight="bold">$</text>
</svg>
